<svg width="129" height="25" viewBox="0 0 129 25" fill="none" xmlns="http://www.w3.org/2000/svg">
<path d="M6.27778 6H23M2 10.2545H15.7586M9.96552 14.4118H23M4.65517 19H19.5" stroke="#0051FF" stroke-width="3" stroke-linecap="round"/>
<path d="M38.76 18.18C38.232 18.18 37.704 18.138 37.176 18.054C36.648 17.982 36.15 17.868 35.682 17.712C35.214 17.544 34.794 17.34 34.422 17.1C34.206 16.956 34.056 16.782 33.972 16.578C33.888 16.374 33.858 16.176 33.882 15.984C33.918 15.78 33.996 15.606 34.116 15.462C34.248 15.306 34.41 15.21 34.602 15.174C34.794 15.138 35.004 15.192 35.232 15.336C35.76 15.648 36.318 15.876 36.906 16.02C37.494 16.164 38.112 16.236 38.76 16.236C39.708 16.236 40.398 16.08 40.83 15.768C41.262 15.444 41.478 15.03 41.478 14.526C41.478 14.106 41.322 13.776 41.01 13.536C40.71 13.296 40.188 13.098 39.444 12.942L37.464 12.528C36.324 12.288 35.472 11.886 34.908 11.322C34.356 10.746 34.08 9.99 34.08 9.054C34.08 8.466 34.2 7.932 34.44 7.452C34.68 6.972 35.016 6.558 35.448 6.21C35.892 5.862 36.414 5.598 37.014 5.418C37.626 5.226 38.298 5.13 39.03 5.13C39.75 5.13 40.434 5.22 41.082 5.4C41.73 5.58 42.312 5.844 42.828 6.192C43.02 6.324 43.146 6.486 43.206 6.678C43.278 6.87 43.296 7.062 43.26 7.254C43.224 7.434 43.14 7.59 43.008 7.722C42.876 7.854 42.708 7.932 42.504 7.956C42.312 7.98 42.09 7.92 41.838 7.776C41.394 7.524 40.944 7.344 40.488 7.236C40.032 7.128 39.54 7.074 39.012 7.074C38.46 7.074 37.986 7.152 37.59 7.308C37.194 7.464 36.888 7.686 36.672 7.974C36.468 8.25 36.366 8.58 36.366 8.964C36.366 9.396 36.51 9.744 36.798 10.008C37.086 10.26 37.578 10.458 38.274 10.602L40.236 11.016C41.424 11.268 42.306 11.664 42.882 12.204C43.47 12.744 43.764 13.464 43.764 14.364C43.764 14.94 43.644 15.462 43.404 15.93C43.176 16.398 42.84 16.8 42.396 17.136C41.964 17.472 41.442 17.73 40.83 17.91C40.218 18.09 39.528 18.18 38.76 18.18ZM46.6415 18.126C46.2815 18.126 46.0055 18.018 45.8135 17.802C45.6215 17.586 45.5255 17.286 45.5255 16.902V10.296C45.5255 9.9 45.6215 9.6 45.8135 9.396C46.0055 9.18 46.2815 9.072 46.6415 9.072C47.0015 9.072 47.2775 9.18 47.4695 9.396C47.6735 9.6 47.7755 9.9 47.7755 10.296V16.902C47.7755 17.286 47.6795 17.586 47.4875 17.802C47.2955 18.018 47.0135 18.126 46.6415 18.126ZM46.6415 7.398C46.2215 7.398 45.8915 7.296 45.6515 7.092C45.4235 6.876 45.3095 6.582 45.3095 6.21C45.3095 5.826 45.4235 5.532 45.6515 5.328C45.8915 5.124 46.2215 5.022 46.6415 5.022C47.0735 5.022 47.4035 5.124 47.6315 5.328C47.8595 5.532 47.9735 5.826 47.9735 6.21C47.9735 6.582 47.8595 6.876 47.6315 7.092C47.4035 7.296 47.0735 7.398 46.6415 7.398ZM51.2654 18.144C50.9054 18.144 50.6294 18.048 50.4374 17.856C50.2454 17.652 50.1494 17.364 50.1494 16.992V10.188C50.1494 9.816 50.2454 9.534 50.4374 9.342C50.6294 9.15 50.8994 9.054 51.2474 9.054C51.5954 9.054 51.8654 9.15 52.0574 9.342C52.2494 9.534 52.3454 9.816 52.3454 10.188V11.502L52.1474 10.962C52.3874 10.362 52.7594 9.888 53.2634 9.54C53.7674 9.192 54.3674 9.018 55.0634 9.018C55.7714 9.018 56.3534 9.186 56.8094 9.522C57.2654 9.858 57.5834 10.374 57.7634 11.07H57.5114C57.7514 10.434 58.1474 9.936 58.6994 9.576C59.2514 9.204 59.8874 9.018 60.6074 9.018C61.2794 9.018 61.8314 9.15 62.2634 9.414C62.7074 9.678 63.0374 10.08 63.2534 10.62C63.4694 11.148 63.5774 11.82 63.5774 12.636V16.992C63.5774 17.364 63.4754 17.652 63.2714 17.856C63.0794 18.048 62.8034 18.144 62.4434 18.144C62.0834 18.144 61.8074 18.048 61.6154 17.856C61.4234 17.652 61.3274 17.364 61.3274 16.992V12.726C61.3274 12.054 61.2134 11.562 60.9854 11.25C60.7694 10.938 60.3974 10.782 59.8694 10.782C59.2814 10.782 58.8194 10.992 58.4834 11.412C58.1474 11.82 57.9794 12.39 57.9794 13.122V16.992C57.9794 17.364 57.8834 17.652 57.6914 17.856C57.4994 18.048 57.2234 18.144 56.8634 18.144C56.5034 18.144 56.2214 18.048 56.0174 17.856C55.8254 17.652 55.7294 17.364 55.7294 16.992V12.726C55.7294 12.054 55.6154 11.562 55.3874 11.25C55.1714 10.938 54.8054 10.782 54.2894 10.782C53.7014 10.782 53.2394 10.992 52.9034 11.412C52.5674 11.82 52.3994 12.39 52.3994 13.122V16.992C52.3994 17.76 52.0214 18.144 51.2654 18.144ZM67.0145 21.384C66.6545 21.384 66.3785 21.288 66.1865 21.096C65.9945 20.904 65.8985 20.622 65.8985 20.25V10.188C65.8985 9.816 65.9945 9.534 66.1865 9.342C66.3785 9.15 66.6485 9.054 66.9965 9.054C67.3565 9.054 67.6325 9.15 67.8245 9.342C68.0165 9.534 68.1125 9.816 68.1125 10.188V11.592L67.9145 11.052C68.0945 10.44 68.4605 9.948 69.0125 9.576C69.5765 9.204 70.2305 9.018 70.9745 9.018C71.7425 9.018 72.4145 9.204 72.9905 9.576C73.5785 9.948 74.0345 10.476 74.3585 11.16C74.6825 11.832 74.8445 12.642 74.8445 13.59C74.8445 14.526 74.6825 15.342 74.3585 16.038C74.0345 16.722 73.5845 17.25 73.0085 17.622C72.4325 17.994 71.7545 18.18 70.9745 18.18C70.2425 18.18 69.6005 18 69.0485 17.64C68.4965 17.268 68.1245 16.788 67.9325 16.2H68.1485V20.25C68.1485 20.622 68.0465 20.904 67.8425 21.096C67.6505 21.288 67.3745 21.384 67.0145 21.384ZM70.3445 16.47C70.7885 16.47 71.1785 16.362 71.5145 16.146C71.8505 15.93 72.1085 15.612 72.2885 15.192C72.4805 14.76 72.5765 14.226 72.5765 13.59C72.5765 12.63 72.3725 11.916 71.9645 11.448C71.5565 10.968 71.0165 10.728 70.3445 10.728C69.9005 10.728 69.5105 10.836 69.1745 11.052C68.8385 11.256 68.5745 11.574 68.3825 12.006C68.2025 12.426 68.1125 12.954 68.1125 13.59C68.1125 14.538 68.3165 15.258 68.7245 15.75C69.1325 16.23 69.6725 16.47 70.3445 16.47ZM79.6975 18.18C78.7015 18.18 77.9515 17.898 77.4475 17.334C76.9435 16.758 76.6915 15.918 76.6915 14.814V6.3C76.6915 5.928 76.7875 5.646 76.9795 5.454C77.1715 5.262 77.4475 5.166 77.8075 5.166C78.1675 5.166 78.4435 5.262 78.6355 5.454C78.8395 5.646 78.9415 5.928 78.9415 6.3V14.706C78.9415 15.258 79.0555 15.666 79.2835 15.93C79.5235 16.194 79.8595 16.326 80.2915 16.326C80.3875 16.326 80.4775 16.326 80.5615 16.326C80.6455 16.314 80.7295 16.302 80.8135 16.29C80.9815 16.266 81.0955 16.314 81.1555 16.434C81.2155 16.542 81.2455 16.77 81.2455 17.118C81.2455 17.418 81.1855 17.652 81.0655 17.82C80.9455 17.988 80.7475 18.09 80.4715 18.126C80.3515 18.138 80.2255 18.15 80.0935 18.162C79.9615 18.174 79.8295 18.18 79.6975 18.18ZM86.6896 18.18C85.6936 18.18 84.8356 17.994 84.1156 17.622C83.3956 17.25 82.8376 16.722 82.4416 16.038C82.0576 15.354 81.8656 14.544 81.8656 13.608C81.8656 12.696 82.0516 11.898 82.4236 11.214C82.8076 10.53 83.3296 9.996 83.9896 9.612C84.6616 9.216 85.4236 9.018 86.2756 9.018C86.8996 9.018 87.4576 9.12 87.9496 9.324C88.4536 9.528 88.8796 9.822 89.2276 10.206C89.5876 10.59 89.8576 11.058 90.0376 11.61C90.2296 12.15 90.3256 12.762 90.3256 13.446C90.3256 13.662 90.2476 13.83 90.0916 13.95C89.9476 14.058 89.7376 14.112 89.4616 14.112H83.6836V12.816H88.7416L88.4536 13.086C88.4536 12.534 88.3696 12.072 88.2016 11.7C88.0456 11.328 87.8116 11.046 87.4996 10.854C87.1996 10.65 86.8216 10.548 86.3656 10.548C85.8616 10.548 85.4296 10.668 85.0696 10.908C84.7216 11.136 84.4516 11.466 84.2596 11.898C84.0796 12.318 83.9896 12.822 83.9896 13.41V13.536C83.9896 14.52 84.2176 15.258 84.6736 15.75C85.1416 16.23 85.8256 16.47 86.7256 16.47C87.0376 16.47 87.3856 16.434 87.7696 16.362C88.1656 16.278 88.5376 16.14 88.8856 15.948C89.1376 15.804 89.3596 15.744 89.5516 15.768C89.7436 15.78 89.8936 15.846 90.0016 15.966C90.1216 16.086 90.1936 16.236 90.2176 16.416C90.2416 16.584 90.2056 16.758 90.1096 16.938C90.0256 17.118 89.8756 17.274 89.6596 17.406C89.2396 17.67 88.7536 17.868 88.2016 18C87.6616 18.12 87.1576 18.18 86.6896 18.18ZM101.584 18.18C101.056 18.18 100.528 18.138 100 18.054C99.4722 17.982 98.9742 17.868 98.5062 17.712C98.0382 17.544 97.6182 17.34 97.2462 17.1C97.0302 16.956 96.8802 16.782 96.7962 16.578C96.7122 16.374 96.6822 16.176 96.7062 15.984C96.7422 15.78 96.8202 15.606 96.9402 15.462C97.0722 15.306 97.2342 15.21 97.4262 15.174C97.6182 15.138 97.8282 15.192 98.0562 15.336C98.5842 15.648 99.1422 15.876 99.7302 16.02C100.318 16.164 100.936 16.236 101.584 16.236C102.532 16.236 103.222 16.08 103.654 15.768C104.086 15.444 104.302 15.03 104.302 14.526C104.302 14.106 104.146 13.776 103.834 13.536C103.534 13.296 103.012 13.098 102.268 12.942L100.288 12.528C99.1482 12.288 98.2962 11.886 97.7322 11.322C97.1802 10.746 96.9042 9.99 96.9042 9.054C96.9042 8.466 97.0242 7.932 97.2642 7.452C97.5042 6.972 97.8402 6.558 98.2722 6.21C98.7162 5.862 99.2382 5.598 99.8382 5.418C100.45 5.226 101.122 5.13 101.854 5.13C102.574 5.13 103.258 5.22 103.906 5.4C104.554 5.58 105.136 5.844 105.652 6.192C105.844 6.324 105.97 6.486 106.03 6.678C106.102 6.87 106.12 7.062 106.084 7.254C106.048 7.434 105.964 7.59 105.832 7.722C105.7 7.854 105.532 7.932 105.328 7.956C105.136 7.98 104.914 7.92 104.662 7.776C104.218 7.524 103.768 7.344 103.312 7.236C102.856 7.128 102.364 7.074 101.836 7.074C101.284 7.074 100.81 7.152 100.414 7.308C100.018 7.464 99.7122 7.686 99.4962 7.974C99.2922 8.25 99.1902 8.58 99.1902 8.964C99.1902 9.396 99.3342 9.744 99.6222 10.008C99.9102 10.26 100.402 10.458 101.098 10.602L103.06 11.016C104.248 11.268 105.13 11.664 105.706 12.204C106.294 12.744 106.588 13.464 106.588 14.364C106.588 14.94 106.468 15.462 106.228 15.93C106 16.398 105.664 16.8 105.22 17.136C104.788 17.472 104.266 17.73 103.654 17.91C103.042 18.09 102.352 18.18 101.584 18.18ZM111.356 18.18C110.36 18.18 109.61 17.898 109.106 17.334C108.602 16.758 108.35 15.918 108.35 14.814V6.3C108.35 5.928 108.446 5.646 108.638 5.454C108.83 5.262 109.106 5.166 109.466 5.166C109.826 5.166 110.102 5.262 110.294 5.454C110.498 5.646 110.6 5.928 110.6 6.3V14.706C110.6 15.258 110.714 15.666 110.942 15.93C111.182 16.194 111.518 16.326 111.95 16.326C112.046 16.326 112.136 16.326 112.22 16.326C112.304 16.314 112.388 16.302 112.472 16.29C112.64 16.266 112.754 16.314 112.814 16.434C112.874 16.542 112.904 16.77 112.904 17.118C112.904 17.418 112.844 17.652 112.724 17.82C112.604 17.988 112.406 18.09 112.13 18.126C112.01 18.138 111.884 18.15 111.752 18.162C111.62 18.174 111.488 18.18 111.356 18.18ZM115.214 18.126C114.854 18.126 114.578 18.018 114.386 17.802C114.194 17.586 114.098 17.286 114.098 16.902V10.296C114.098 9.9 114.194 9.6 114.386 9.396C114.578 9.18 114.854 9.072 115.214 9.072C115.574 9.072 115.85 9.18 116.042 9.396C116.246 9.6 116.348 9.9 116.348 10.296V16.902C116.348 17.286 116.252 17.586 116.06 17.802C115.868 18.018 115.586 18.126 115.214 18.126ZM115.214 7.398C114.794 7.398 114.464 7.296 114.224 7.092C113.996 6.876 113.882 6.582 113.882 6.21C113.882 5.826 113.996 5.532 114.224 5.328C114.464 5.124 114.794 5.022 115.214 5.022C115.646 5.022 115.976 5.124 116.204 5.328C116.432 5.532 116.546 5.826 116.546 6.21C116.546 6.582 116.432 6.876 116.204 7.092C115.976 7.296 115.646 7.398 115.214 7.398ZM119.802 21.384C119.442 21.384 119.166 21.288 118.974 21.096C118.782 20.904 118.686 20.622 118.686 20.25V10.188C118.686 9.816 118.782 9.534 118.974 9.342C119.166 9.15 119.436 9.054 119.784 9.054C120.144 9.054 120.42 9.15 120.612 9.342C120.804 9.534 120.9 9.816 120.9 10.188V11.592L120.702 11.052C120.882 10.44 121.248 9.948 121.8 9.576C122.364 9.204 123.018 9.018 123.762 9.018C124.53 9.018 125.202 9.204 125.778 9.576C126.366 9.948 126.822 10.476 127.146 11.16C127.47 11.832 127.632 12.642 127.632 13.59C127.632 14.526 127.47 15.342 127.146 16.038C126.822 16.722 126.372 17.25 125.796 17.622C125.22 17.994 124.542 18.18 123.762 18.18C123.03 18.18 122.388 18 121.836 17.64C121.284 17.268 120.912 16.788 120.72 16.2H120.936V20.25C120.936 20.622 120.834 20.904 120.63 21.096C120.438 21.288 120.162 21.384 119.802 21.384ZM123.132 16.47C123.576 16.47 123.966 16.362 124.302 16.146C124.638 15.93 124.896 15.612 125.076 15.192C125.268 14.76 125.364 14.226 125.364 13.59C125.364 12.63 125.16 11.916 124.752 11.448C124.344 10.968 123.804 10.728 123.132 10.728C122.688 10.728 122.298 10.836 121.962 11.052C121.626 11.256 121.362 11.574 121.17 12.006C120.99 12.426 120.9 12.954 120.9 13.59C120.9 14.538 121.104 15.258 121.512 15.75C121.92 16.23 122.46 16.47 123.132 16.47Z" fill="#0051FF"/>
</svg>
